# xmcd
#
# Track frame offsets:
#	150
#	30135
#	65196
#	98487
#	128565
#	161970
#	174973
#	209389
#	238743
#	266061
#	293625
#
# Disc length: 4285 seconds
#
# Revision: 2
# Processed by: cddbd v1.4PL0 Copyright (c) Steve Scherf et al.
# Submitted via: audiograbber 1.82.01
#
DISCID=9510bb0b
DTITLE=Yurik - Жажда Скорости "Убойное Техно"
DYEAR=2003
DGENRE=
TTITLE0=E Nomine - Das Omen (DJ Dean Mix)
TTITLE1=Digital Rockers - I Belive (DJ Cosmo Remix)
TTITLE2=DJ Quicksilver - New Life (Formania Mix)
TTITLE3=Voodoo and Serano - Overload (Space Deejayz Mix)
TTITLE4=Mario Lopez - Always And Forever (Chris Crusher Remix)
TTITLE5=Jamx and Deleon - Mind Made Up (Radio Mix)
TTITLE6=Divine Inspiration - The Way (Voodoo and Serano Remix)
TTITLE7=DJ Dean - Protect Your Ears (Rocco vs. Pulsedriver Remix)
TTITLE8=Akira Yamamoto - Always (Energy Mix)
TTITLE9=Marc Aurel - Sound Of Love (Dominator Club Mix)
TTITLE10=Clubbstars - Let The Bass Kick 2003 (DJ Scotty Remix)
EXTD=
EXTT0=
EXTT1=
EXTT2=
EXTT3=
EXTT4=
EXTT5=
EXTT6=
EXTT7=
EXTT8=
EXTT9=
EXTT10=
PLAYORDER=
